<?xml version="1.0" encoding="UTF-8"?>
<svg width="80px" height="80px" viewBox="0 0 80 80" version="1.1" xmlns="http://www.w3.org/2000/svg" xmlns:xlink="http://www.w3.org/1999/xlink">
    <!-- Generator: Sketch 52.2 (67145) - http://www.bohemiancoding.com/sketch -->
    <title>icon-beats-bb</title>
    <desc>Created with Sketch.</desc>
    <g id="icon-beats-bb" stroke="none" stroke-width="1" fill="none" fill-rule="evenodd">
        <g id="Group" transform="translate(20.000000, 15.000000)">
            <path d="M17.1875,31.25 L0,31.25 L0,0 L17.1875,0 C25.815625,0 32.8125,6.996875 32.8125,15.625 C32.8125,24.253125 25.815625,31.25 17.1875,31.25" id="Fill-1" fill="#0077CC"></path>
            <path d="M35.4720312,24.4125 C32.1876562,31.2171875 25.2376562,35.9375 17.1876562,35.9375 L0.00015625,35.9375 L0.00015625,50 L23.4376562,50 C32.0657812,50 39.0626562,43.003125 39.0626562,34.375 C39.0626562,30.5875 37.7142187,27.115625 35.4720312,24.4125" id="Fill-3" fill="#00BFB3"></path>
            <path d="M31.7779688,21.1776562 C29.3623438,19.6479687 26.5076563,18.7495312 23.4373438,18.7495312 L-0.00015625,18.7495312 L-0.00015625,31.2495312 L17.1873438,31.2495312 C23.8592188,31.2495312 29.5357813,27.0620312 31.7779688,21.1776562" id="Fill-6" fill="#343741"></path>
        </g>
    </g>
</svg>