<?xml version="1.0" encoding="UTF-8"?>
<svg width="80px" height="80px" viewBox="0 0 80 80" version="1.1" xmlns="http://www.w3.org/2000/svg" xmlns:xlink="http://www.w3.org/1999/xlink">
    <!-- Generator: Sketch 52.2 (67145) - http://www.bohemiancoding.com/sketch -->
    <title>icon-metricbeat-bb</title>
    <desc>Created with Sketch.</desc>
    <g id="icon-metricbeat-bb" stroke="none" stroke-width="1" fill="none" fill-rule="evenodd">
        <g id="Group-7" transform="translate(15.000000, 15.000000)">
            <path d="M25,3.125 C12.9375,3.125 3.125,12.9375 3.125,25 C3.125,37.0625 12.9375,46.875 25,46.875 C37.0625,46.875 46.875,37.0625 46.875,25 C46.875,12.9375 37.0625,3.125 25,3.125 M25,50 C11.215625,50 0,38.784375 0,25 C0,11.215625 11.215625,0 25,0 C38.784375,0 50,11.215625 50,25 C50,38.784375 38.784375,50 25,50" id="Fill-1" fill="#535966"></path>
            <path d="M43.75,25 L40.625,25 C40.625,16.384375 33.615625,9.375 25,9.375 C16.384375,9.375 9.375,16.384375 9.375,25 L6.25,25 C6.25,14.6609375 14.6609375,6.25 25,6.25 C35.3390625,6.25 43.75,14.6609375 43.75,25" id="Fill-3" fill="#00BFB3"></path>
            <path d="M25,28.125 C23.2765625,28.125 21.875,26.7234375 21.875,25 C21.875,23.2765625 23.2765625,21.875 25,21.875 C26.7234375,21.875 28.125,23.2765625 28.125,25 C28.125,26.7234375 26.7234375,28.125 25,28.125 Z M33.9171875,18.2921875 L31.7078125,16.0828125 L28.1546875,19.634375 C27.225,19.0875 26.15625,18.75 25,18.75 C21.553125,18.75 18.75,21.553125 18.75,25 C18.75,28.446875 21.553125,31.25 25,31.25 C28.446875,31.25 31.25,28.446875 31.25,25 C31.25,23.8453125 30.9140625,22.775 30.3640625,21.84375 L33.9171875,18.2921875 Z" id="Fill-5" fill="#535966"></path>
        </g>
    </g>
</svg>